<?xml version="1.0" encoding="utf-8"?>
<!-- Generator: Adobe Illustrator 23.0.5, SVG Export Plug-In . SVG Version: 6.00 Build 0)  -->
<svg version="1.1" id="Capa_1" xmlns="http://www.w3.org/2000/svg" xmlns:xlink="http://www.w3.org/1999/xlink" x="0px" y="0px"
	 viewBox="0 0 387.2 387.2" style="enable-background:new 0 0 387.2 387.2;" xml:space="preserve">
<style type="text/css">
	.st0{fill:#FFFFFF;}
</style>
<g>
	<g>
		<path class="st0" d="M304.8,10.8L304.8,10.8C297.9,3.9,288.6,0,278.8,0H108.3C88.1,0.1,71.7,16.5,71.6,36.7v313.7
			c0,9.7,3.9,19.1,10.8,26c6.9,6.9,16.2,10.8,25.9,10.8h170.6c9.7,0,19.1-3.9,25.9-10.8c6.9-6.9,10.8-16.2,10.8-25.9V36.8
			C315.6,27,311.7,17.7,304.8,10.8z M193.6,362.3L193.6,362.3c-5.5,0-9.9-4.4-9.9-9.9s4.4-9.9,9.9-9.9s9.9,4.4,9.9,9.9
			S199.1,362.3,193.6,362.3z M286.4,300c0,13.3-10.7,24-24,24H124.7c-13.3,0-24-10.7-24-24V66.2c0-13.3,10.7-24,24-24h137.8
			c13.3,0,24,10.7,24,24L286.4,300z"/>
	</g>
</g>
</svg>
