<?xml version="1.0" encoding="UTF-8" standalone="no"?>
<!DOCTYPE svg PUBLIC "-//W3C//DTD SVG 1.1//EN" "http://www.w3.org/Graphics/SVG/1.1/DTD/svg11.dtd">
<svg width="100%" height="100%" viewBox="0 0 257 70" version="1.1" xmlns="http://www.w3.org/2000/svg" xmlns:xlink="http://www.w3.org/1999/xlink" xml:space="preserve" xmlns:serif="http://www.serif.com/" style="fill-rule:evenodd;clip-rule:evenodd;stroke-linejoin:round;stroke-miterlimit:2;">
    <g id="Trazos">
        <g transform="matrix(1.02612,0,0,1.02985,-11.0656,-1.4534)">
            <circle cx="33.803" cy="20.409" r="14.14" style="fill:rgb(255,0,0);"/>
        </g>
        <g transform="matrix(1,0,0,0.64,-0.0494626,13.6457)">
            <rect x="25.115" y="36.645" width="219.079" height="3.298" style="fill:rgb(255,0,0);"/>
        </g>
        <g transform="matrix(1.09496,0,0,1.06998,-2.28121,-3.17583)">
            <path d="M24.024,22.463L38.248,59.86L9.8,59.86L24.024,22.463Z"/>
        </g>
    </g>
    <g id="Texto">
        <g transform="matrix(1.10944,0,0,1,-5.05616,0)">
            <text x="45.319px" y="34.514px" style="font-family:'Constantia', serif;font-size:18.414px;">I N M O B I L<tspan x="151.793px 156.414px 162.672px 167.024px 179.171px 183.792px " y="34.514px 34.514px 34.514px 34.514px 34.514px 34.514px "> I A R</tspan> I <tspan x="210.649px " y="34.514px ">A</tspan></text>
        </g>
        <g transform="matrix(1.17023,0,0,1,-9.76248,-0.824378)">
            <text x="57.726px" y="54.999px" style="font-family:'Constantia', serif;font-size:12.5px;">ANT<tspan x="83.001px 93.053px " y="54.999px 54.999px ">ON</tspan>IO    OL<tspan x="146.569px 153.899px 161.126px 169.555px " y="54.999px 54.999px 54.999px 54.999px ">AVAR</tspan>RIA</text>
        </g>
    </g>
</svg>
